<svg xmlns="http://www.w3.org/2000/svg" width="155" height="32" viewBox="0 0 155 32" fill="none"><g mask="url(#mask0_1_289)"><path fill-rule="evenodd" clip-rule="evenodd" d="M151.856 22.3662C150.616 22.3662 149.618 21.3762 149.618 20.1366C149.618 18.8971 150.616 17.899 151.856 17.899C153.095 17.899 154.102 18.8971 154.102 20.1366C154.102 21.3762 153.095 22.3662 151.856 22.3662ZM151.856 18.2315C150.807 18.2315 149.968 19.0884 149.968 20.1366C149.968 21.1846 150.807 22.025 151.856 22.025C152.904 22.025 153.761 21.1846 153.761 20.1366C153.761 19.0884 152.904 18.2315 151.856 18.2315ZM152.804 21.5176H152.571C152.529 21.5176 152.488 21.4845 152.471 21.4511L151.798 20.3859L151.715 20.3614H151.365V21.3926C151.365 21.4511 151.315 21.5176 151.248 21.5176H151.041C150.974 21.5176 150.932 21.4511 150.932 21.3926V18.8804C150.932 18.7723 150.982 18.7058 151.082 18.6972C151.207 18.6807 151.531 18.6724 151.715 18.6724C152.405 18.6724 152.804 18.8804 152.804 19.5126V19.546C152.804 19.9704 152.596 20.1948 152.247 20.2945L152.887 21.3347C152.896 21.3511 152.904 21.3845 152.904 21.4096C152.904 21.4678 152.879 21.5176 152.804 21.5176ZM152.388 19.5126C152.388 19.1798 152.197 19.0634 151.739 19.0634H151.473H151.357V19.9954C151.448 19.9954 151.673 20.0035 151.739 20.0035C152.205 20.0035 152.388 19.8788 152.388 19.546V19.5126Z" fill="black"></path><path d="M9.06507 30.2754C4.33389 30.2754 0.5 26.4412 0.5 21.71V1.724H6.20949V21.71C6.20949 23.3007 7.47437 24.5648 9.06507 24.5648H24.4505V30.2754H9.06507Z" fill="black"></path><rect x="27.0104" y="1.72354" width="5.71033" height="28.5514" fill="black"></rect><path d="M34.874 1.724H62.3816V7.43461H51.4834V30.2754H45.7722V7.43461H34.874L34.874 1.724Z" fill="black"></path><path d="M87.3737 18.855H70.2424V30.2754H64.533V1.724H70.2424V13.1446H87.3737V1.724H93.0843V30.2754H87.3737V18.855Z" fill="black"></path><path fill-rule="evenodd" clip-rule="evenodd" d="M110.498 25.3084C115.64 25.3084 119.807 21.1417 119.807 15.9992C119.807 10.8573 115.64 6.69059 110.498 6.69059C105.355 6.69059 101.19 10.8573 101.19 15.9992C101.19 21.1417 105.355 25.3084 110.498 25.3084ZM110.498 0.484009C119.054 0.484009 126.013 7.4439 126.013 15.9992C126.013 24.5545 119.054 31.5144 110.498 31.5144C101.943 31.5144 94.983 24.5545 94.983 15.9992C94.983 7.44389 101.943 0.484009 110.498 0.484009Z" fill="#FFD500"></path><path d="M154.808 24.5648V30.2754H131.968C128.827 30.2754 126.257 27.7058 126.257 24.5648C126.257 22.5254 127.358 20.6905 128.99 19.7116L149.099 7.43433H127.252V1.724H149.099C152.239 1.724 154.808 4.29358 154.808 7.43433C154.808 9.51433 153.707 11.3501 152.076 12.329L131.968 24.5648H154.808Z" fill="black"></path></g></svg>